<svg aria-hidden="true" style="position: absolute; width: 0; height: 0; overflow: hidden;" version="1.1" xmlns="http://www.w3.org/2000/svg" xmlns:xlink="http://www.w3.org/1999/xlink">
<defs>
<symbol id="icon-behance" viewBox="0 0 20 20">
<path d="M8.072 9.301c0 0 1.892-0.147 1.892-2.459 0-2.315-1.548-3.441-3.51-3.441h-6.454v12.926h6.454c0 0 3.941 0.129 3.941-3.816-0.001-0.001 0.171-3.21-2.323-3.21zM2.844 5.697h3.61c0 0 0.878 0 0.878 1.344 0 1.346-0.516 1.541-1.102 1.541h-3.386v-2.885zM6.271 14.029h-3.427v-3.455h3.61c0 0 1.308-0.018 1.308 1.775 0 1.512-0.977 1.669-1.491 1.68zM15.649 6.688c-4.771 0-4.767 4.967-4.767 4.967s-0.326 4.941 4.767 4.941c0 0 4.243 0.254 4.243-3.437h-2.182c0 0 0.072 1.391-1.988 1.391 0 0-2.184 0.152-2.184-2.25h6.423c0.001-0.001 0.709-5.612-4.312-5.612zM17.59 10.574h-4.074c0 0 0.266-1.992 2.182-1.992s1.892 1.992 1.892 1.992zM18.097 4.16h-5.117v1.594h5.117v-1.594z"></path>
</symbol>
<symbol id="icon-mixi" viewBox="0 0 20 20">
<path d="M9.546 17.258h0.955v2.143c6.51-0.684 9.982-7.143 9.421-11.691-0.564-4.55-5.451-7.692-10.944-7.020-5.492 0.674-9.468 4.908-8.906 9.459 0.513 4.138 4.602 7.113 9.474 7.109zM15.694 12.86h-1.831v-4.953c0-0.199-0.018-0.387-0.053-0.557-0.029-0.148-0.084-0.273-0.164-0.381-0.076-0.1-0.187-0.182-0.33-0.244-0.152-0.066-0.363-0.1-0.623-0.1-0.537 0-0.957 0.141-1.251 0.416-0.291 0.273-0.433 0.633-0.433 1.1v4.719h-1.83v-4.953c0-0.205-0.019-0.395-0.059-0.564-0.034-0.15-0.091-0.277-0.173-0.387-0.077-0.102-0.179-0.178-0.314-0.237-0.144-0.062-0.34-0.094-0.58-0.094-0.312 0-0.58 0.059-0.795 0.174-0.223 0.117-0.405 0.26-0.541 0.422-0.138 0.164-0.239 0.334-0.299 0.506-0.062 0.172-0.092 0.31-0.092 0.414v4.719h-1.832v-7.696h1.758v0.6c0.574-0.508 1.306-0.766 2.181-0.766 0.51 0 0.981 0.103 1.399 0.305 0.306 0.147 0.554 0.365 0.738 0.652 0.231-0.248 0.504-0.451 0.814-0.609 0.454-0.231 0.958-0.348 1.499-0.348 0.402 0 0.773 0.043 1.102 0.127 0.343 0.086 0.644 0.225 0.895 0.412 0.258 0.193 0.46 0.445 0.602 0.75 0.141 0.301 0.212 0.66 0.212 1.070v5.503z"></path>
</symbol>
<symbol id="icon-dribbble" viewBox="0 0 20 20">
<path d="M9.565 7.421c-1.358-2.414-2.811-4.383-2.917-4.528-2.191 1.036-3.826 3.055-4.337 5.487 0.206 0.004 3.482 0.043 7.254-0.959zM10.543 10.061c0.102-0.033 0.206-0.064 0.309-0.094-0.197-0.447-0.412-0.895-0.637-1.336-4.046 1.212-7.928 1.124-8.065 1.12-0.003 0.084-0.007 0.166-0.007 0.25 0 2.019 0.763 3.861 2.016 5.252l-0.005-0.006c0 0 2.15-3.814 6.389-5.186zM5.171 16.194v-0.004c-0.058-0.045-0.12-0.086-0.178-0.135 0.106 0.085 0.178 0.139 0.178 0.139zM8.118 2.372c-0.007 0.002-0.015 0.004-0.015 0.004 0.006-0.002 0.014-0.002 0.014-0.002l0.001-0.002zM15.189 4.104c-1.384-1.218-3.199-1.961-5.189-1.961-0.639 0-1.258 0.078-1.852 0.221 0.12 0.16 1.595 2.119 2.938 4.584 2.962-1.109 4.081-2.812 4.103-2.844zM10 19.2c-5.080 0-9.199-4.119-9.199-9.199-0.001-5.082 4.118-9.201 9.199-9.201s9.2 4.119 9.2 9.201c0 5.080-4.118 9.199-9.2 9.199zM11.336 11.286c-4.611 1.607-6.134 4.838-6.165 4.904 1.334 1.041 3.006 1.666 4.828 1.666 1.088 0 2.125-0.221 3.067-0.621-0.116-0.689-0.573-3.096-1.679-5.967-0.016 0.006-0.033 0.012-0.051 0.018zM11.69 8.12c0.184 0.373 0.358 0.754 0.523 1.139 0.059 0.135 0.114 0.272 0.17 0.406 2.713-0.342 5.385 0.238 5.473 0.256-0.019-1.863-0.686-3.572-1.787-4.912-0.018 0.023-1.279 1.843-4.379 3.111zM12.861 10.905c1.031 2.836 1.449 5.142 1.529 5.611 1.764-1.191 3.018-3.080 3.367-5.27-0.156-0.050-2.356-0.747-4.896-0.341z"></path>
</symbol>
<symbol id="icon-facebook" viewBox="0 0 20 20">
<path d="M17 1h-14c-1.1 0-2 0.9-2 2v14c0 1.101 0.9 2 2 2h7v-7h-2v-2.475h2v-2.050c0-2.164 1.212-3.684 3.766-3.684l1.803 0.002v2.605h-1.197c-0.994 0-1.372 0.746-1.372 1.438v1.69h2.568l-0.568 2.474h-2v7h4c1.1 0 2-0.899 2-2v-14c0-1.1-0.9-2-2-2z"></path>
</symbol>
<symbol id="icon-github-with-circle" viewBox="0 0 20 20">
<path d="M10.015 9.949c0 0-0.010 0-0.015 0h-0.015c-1.191 0-2.24-0.303-2.861 0.268-0.371 0.342-0.527 0.754-0.527 1.197 0 1.852 1.483 2.080 3.389 2.080h0.029c1.905 0 3.389-0.229 3.389-2.080 0-0.443-0.156-0.856-0.527-1.197-0.622-0.571-1.671-0.268-2.862-0.268zM8.393 12.48c-0.363 0-0.656-0.408-0.656-0.91s0.293-0.908 0.656-0.908c0.363 0 0.657 0.406 0.657 0.908s-0.293 0.91-0.657 0.91zM11.606 12.48c-0.363 0-0.657-0.408-0.657-0.91s0.294-0.908 0.657-0.908c0.362 0 0.656 0.406 0.656 0.908s-0.293 0.91-0.656 0.91zM10 0.4c-5.302 0-9.6 4.298-9.6 9.6s4.298 9.6 9.6 9.6 9.6-4.298 9.6-9.6-4.298-9.6-9.6-9.6zM10.876 13.939c-0.172 0-0.514 0-0.876 0.002-0.362-0.002-0.704-0.002-0.876-0.002-0.76 0-3.772-0.059-3.772-3.689 0-0.834 0.286-1.445 0.755-1.955-0.074-0.184-0.078-1.232 0.32-2.236 0 0 0.916 0.1 2.301 1.051 0.289-0.081 0.781-0.122 1.272-0.122s0.982 0.041 1.273 0.121c1.385-0.951 2.301-1.051 2.301-1.051 0.398 1.004 0.395 2.053 0.32 2.236 0.469 0.51 0.755 1.121 0.755 1.955-0.001 3.632-3.013 3.69-3.773 3.69z"></path>
</symbol>
<symbol id="icon-instagram" viewBox="0 0 20 20">
<path d="M17 1h-14c-1.1 0-2 0.9-2 2v14c0 1.101 0.9 2 2 2h14c1.1 0 2-0.899 2-2v-14c0-1.1-0.9-2-2-2zM9.984 15.523c3.059 0 5.538-2.481 5.538-5.539 0-0.338-0.043-0.664-0.103-0.984h1.581v7.216c0 0.382-0.31 0.69-0.693 0.69h-12.614c-0.383 0-0.693-0.308-0.693-0.69v-7.216h1.549c-0.061 0.32-0.104 0.646-0.104 0.984 0 3.059 2.481 5.539 5.539 5.539zM6.523 9.984c0-1.912 1.55-3.461 3.462-3.461s3.462 1.549 3.462 3.461-1.551 3.462-3.462 3.462c-1.913 0-3.462-1.55-3.462-3.462zM16.307 6h-1.615c-0.382 0-0.692-0.312-0.692-0.692v-1.617c0-0.382 0.31-0.691 0.691-0.691h1.615c0.384 0 0.694 0.309 0.694 0.691v1.616c0 0.381-0.31 0.693-0.693 0.693z"></path>
</symbol>
<symbol id="icon-linkedin" viewBox="0 0 20 20">
<path d="M5 3c0 1.062-0.71 1.976-2.001 1.976-1.215 0-1.999-0.862-1.999-1.924 0-1.090 0.76-2.052 2-2.052s1.976 0.91 2 2zM1 19v-13h4v13h-4z"></path>
<path d="M7 10.444c0-1.545-0.051-2.836-0.102-3.951h3.594l0.178 1.723h0.076c0.506-0.811 1.746-2 3.822-2 2.532 0 4.432 1.695 4.432 5.342v7.442h-4v-6.861c0-1.594-0.607-2.81-2-2.81-1.062 0-1.594 0.86-1.873 1.569-0.102 0.254-0.127 0.608-0.127 0.963v7.139h-4v-8.556z"></path>
</symbol>
<symbol id="icon-twitter" viewBox="0 0 20 20">
<path d="M17.316 6.246c0.008 0.162 0.011 0.326 0.011 0.488 0 4.99-3.797 10.742-10.74 10.742-2.133 0-4.116-0.625-5.787-1.697 0.296 0.035 0.596 0.053 0.9 0.053 1.77 0 3.397-0.604 4.688-1.615-1.651-0.031-3.046-1.121-3.526-2.621 0.23 0.043 0.467 0.066 0.71 0.066 0.345 0 0.679-0.045 0.995-0.131-1.727-0.348-3.028-1.873-3.028-3.703 0-0.016 0-0.031 0-0.047 0.509 0.283 1.092 0.453 1.71 0.473-1.013-0.678-1.68-1.832-1.68-3.143 0-0.691 0.186-1.34 0.512-1.898 1.861 2.285 4.644 3.787 7.781 3.945-0.064-0.277-0.097-0.564-0.097-0.861 0-2.084 1.689-3.773 3.774-3.773 1.086 0 2.067 0.457 2.756 1.191 0.859-0.17 1.667-0.484 2.397-0.916-0.282 0.881-0.881 1.621-1.66 2.088 0.764-0.092 1.49-0.293 2.168-0.594-0.506 0.758-1.146 1.422-1.884 1.953z"></path>
</symbol>
</defs>
</svg>
