<?xml version="1.0" standalone="no"?>
<!DOCTYPE svg PUBLIC "-//W3C//DTD SVG 20010904//EN"
 "http://www.w3.org/TR/2001/REC-SVG-20010904/DTD/svg10.dtd">
<svg version="1.0" xmlns="http://www.w3.org/2000/svg"
 width="200.000000pt" height="200.000000pt" viewBox="0 0 200.000000 200.000000"
 preserveAspectRatio="xMidYMid meet">
<metadata>
Created by potrace 1.16, written by Peter Selinger 2001-2019
</metadata>
<g transform="translate(0.000000,200.000000) scale(0.100000,-0.100000)"
fill="#000000" stroke="none">
<path d="M117 1072 c-59 -59 -107 -112 -107 -117 0 -5 12 -22 27 -37 l27 -28
83 82 83 83 93 -93 c51 -50 97 -92 102 -92 5 0 51 42 102 92 l93 93 93 -93
c51 -50 97 -92 102 -92 6 0 51 41 100 90 l90 90 90 -90 c50 -49 95 -90 100
-90 5 0 51 42 102 92 l93 93 93 -93 c51 -50 97 -92 102 -92 5 0 51 42 102 92
l93 93 78 -78 c42 -42 82 -77 88 -77 13 0 54 43 54 56 0 5 -49 59 -110 119
l-110 110 -98 -98 -97 -97 -98 97 -97 98 -95 -95 -95 -95 -93 93 c-51 50 -97
92 -102 92 -5 0 -51 -42 -102 -92 l-93 -93 -95 95 -95 95 -98 -98 -97 -97 -95
95 c-52 52 -97 95 -100 95 -3 0 -54 -48 -113 -108z"/>
</g>
</svg>
